# 3ds Max Wavefront OBJ Exporter v0.97b - (c)2007 guruware
# 创建的文件:11.01.2021 17:51:01

mtllib yzt.mtl

#
# object Cone001
#

v  -0.1329 0.0000 0.2052
v  5.7221 0.0000 -3.1751
v  6.3975 0.0000 -1.5446
v  6.6278 0.0000 0.2052
v  3.2475 0.0000 -5.6497
v  4.6477 0.0000 -4.5753
v  -0.1329 0.0000 -6.5555
v  1.6169 0.0000 -6.3251
v  -3.5132 0.0000 -5.6497
v  -1.8826 0.0000 -6.3251
v  -5.9878 0.0000 -3.1751
v  -4.9134 0.0000 -4.5753
v  -6.8935 0.0000 0.2052
v  -6.6632 0.0000 -1.5446
v  -5.9878 0.0000 3.5856
v  -6.6632 0.0000 1.9550
v  -3.5132 0.0000 6.0601
v  -4.9134 0.0000 4.9857
v  -0.1329 0.0000 6.9659
v  -1.8826 0.0000 6.7355
v  3.2475 0.0000 6.0601
v  1.6169 0.0000 6.7355
v  5.7221 0.0000 3.5856
v  4.6477 0.0000 4.9857
v  6.3975 0.0000 1.9550
v  7.9728 8.8260 -1.9667
v  8.2587 8.8260 0.2052
v  7.1345 8.8260 -3.9906
v  5.8009 8.8260 -5.7285
v  4.0629 8.8260 -7.0621
v  2.0390 8.8260 -7.9004
v  -0.1329 8.8260 -8.1864
v  -2.3048 8.8260 -7.9004
v  -4.3286 8.8260 -7.0621
v  -6.0666 8.8260 -5.7285
v  -7.4002 8.8260 -3.9906
v  -8.2385 8.8260 -1.9667
v  -8.5244 8.8260 0.2052
v  -8.2385 8.8260 2.3771
v  -7.4002 8.8260 4.4010
v  -6.0666 8.8260 6.1390
v  -4.3286 8.8260 7.4725
v  -2.3048 8.8260 8.3109
v  -0.1329 8.8260 8.5968
v  2.0390 8.8260 8.3109
v  4.0629 8.8260 7.4725
v  5.8009 8.8260 6.1390
v  7.1345 8.8260 4.4010
v  7.9728 8.8260 2.3771
v  9.5481 17.6520 -2.3888
v  9.8896 17.6520 0.2052
v  8.5469 17.6520 -4.8060
v  6.9541 17.6520 -6.8817
v  4.8784 17.6520 -8.4745
v  2.4612 17.6520 -9.4757
v  -0.1329 17.6520 -9.8173
v  -2.7269 17.6520 -9.4757
v  -5.1441 17.6520 -8.4745
v  -7.2198 17.6520 -6.8817
v  -8.8126 17.6520 -4.8060
v  -9.8138 17.6520 -2.3888
v  -10.1553 17.6520 0.2052
v  -9.8138 17.6520 2.7992
v  -8.8126 17.6520 5.2164
v  -7.2198 17.6520 7.2922
v  -5.1441 17.6520 8.8849
v  -2.7269 17.6520 9.8862
v  -0.1329 17.6520 10.2277
v  2.4611 17.6520 9.8862
v  4.8784 17.6520 8.8849
v  6.9541 17.6520 7.2922
v  8.5469 17.6520 5.2165
v  9.5481 17.6520 2.7992
v  11.1234 26.4781 -2.8109
v  11.5205 26.4781 0.2052
v  9.9593 26.4781 -5.6215
v  8.1073 26.4781 -8.0350
v  5.6938 26.4781 -9.8869
v  2.8833 26.4781 -11.0511
v  -0.1329 26.4781 -11.4481
v  -3.1490 26.4781 -11.0511
v  -5.9595 26.4781 -9.8869
v  -8.3730 26.4781 -8.0350
v  -10.2250 26.4781 -5.6215
v  -11.3891 26.4781 -2.8109
v  -11.7862 26.4781 0.2052
v  -11.3891 26.4781 3.2213
v  -10.2250 26.4781 6.0319
v  -8.3730 26.4781 8.4454
v  -5.9595 26.4781 10.2973
v  -3.1490 26.4781 11.4615
v  -0.1329 26.4781 11.8586
v  2.8833 26.4781 11.4615
v  5.6938 26.4781 10.2973
v  8.1073 26.4781 8.4454
v  9.9593 26.4781 6.0319
v  11.1234 26.4781 3.2213
v  12.6988 35.3041 -3.2330
v  13.1514 35.3041 0.2052
v  11.3717 35.3041 -6.4369
v  9.2605 35.3041 -9.1882
v  6.5093 35.3041 -11.2993
v  3.3054 35.3041 -12.6264
v  -0.1329 35.3041 -13.0790
v  -3.5711 35.3041 -12.6264
v  -6.7750 35.3041 -11.2993
v  -9.5262 35.3041 -9.1882
v  -11.6374 35.3041 -6.4369
v  -12.9645 35.3041 -3.2330
v  -13.4171 35.3041 0.2052
v  -12.9645 35.3041 3.6434
v  -11.6374 35.3041 6.8473
v  -9.5262 35.3041 9.5986
v  -6.7750 35.3041 11.7097
v  -3.5711 35.3041 13.0368
v  -0.1329 35.3041 13.4895
v  3.3054 35.3041 13.0368
v  6.5093 35.3041 11.7097
v  9.2605 35.3041 9.5986
v  11.3716 35.3041 6.8474
v  12.6988 35.3041 3.6434
v  14.2741 44.1301 -3.6551
v  14.7823 44.1301 0.2052
v  12.7840 44.1301 -7.2524
v  10.4138 44.1301 -10.3414
v  7.3247 44.1301 -12.7117
v  3.7275 44.1301 -14.2017
v  -0.1329 44.1301 -14.7099
v  -3.9932 44.1301 -14.2017
v  -7.5904 44.1301 -12.7117
v  -10.6795 44.1301 -10.3414
v  -13.0498 44.1301 -7.2524
v  -14.5398 44.1301 -3.6551
v  -15.0480 44.1301 0.2052
v  -14.5398 44.1301 4.0655
v  -13.0498 44.1301 7.6628
v  -10.6795 44.1301 10.7518
v  -7.5904 44.1301 13.1221
v  -3.9932 44.1301 14.6121
v  -0.1329 44.1301 15.1204
v  3.7275 44.1301 14.6122
v  7.3247 44.1301 13.1221
v  10.4137 44.1301 10.7518
v  12.7840 44.1301 7.6628
v  14.2741 44.1301 4.0656
v  -0.1329 44.1301 0.2052
# 146 vertices

vn 0.0000 -1.0000 -0.0000
vn 0.5794 -0.7432 -0.3345
vn 0.6463 -0.7432 -0.1732
vn 0.6691 -0.7432 0.0000
vn 0.3345 -0.7432 -0.5794
vn 0.4731 -0.7432 -0.4731
vn 0.0000 -0.7432 -0.6691
vn 0.1732 -0.7432 -0.6463
vn -0.3345 -0.7432 -0.5794
vn -0.1732 -0.7432 -0.6463
vn -0.5794 -0.7432 -0.3345
vn -0.4731 -0.7432 -0.4731
vn -0.6691 -0.7432 -0.0000
vn -0.6463 -0.7432 -0.1732
vn -0.5794 -0.7432 0.3345
vn -0.6463 -0.7432 0.1732
vn -0.3345 -0.7432 0.5794
vn -0.4731 -0.7432 0.4731
vn -0.0000 -0.7432 0.6691
vn -0.1732 -0.7432 0.6463
vn 0.3345 -0.7432 0.5794
vn 0.1732 -0.7432 0.6463
vn 0.5794 -0.7432 0.3345
vn 0.4731 -0.7432 0.4731
vn 0.6463 -0.7432 0.1732
vn 0.9498 -0.1817 -0.2545
vn 0.9834 -0.1817 0.0000
vn 0.8516 -0.1817 -0.4917
vn 0.6953 -0.1817 -0.6953
vn 0.4917 -0.1817 -0.8516
vn 0.2545 -0.1817 -0.9498
vn 0.0000 -0.1817 -0.9834
vn -0.2545 -0.1817 -0.9498
vn -0.4917 -0.1817 -0.8516
vn -0.6953 -0.1817 -0.6953
vn -0.8516 -0.1817 -0.4917
vn -0.9498 -0.1817 -0.2545
vn -0.9834 -0.1817 -0.0000
vn -0.9498 -0.1817 0.2545
vn -0.8516 -0.1817 0.4917
vn -0.6953 -0.1817 0.6953
vn -0.4917 -0.1817 0.8516
vn -0.2545 -0.1817 0.9498
vn -0.0000 -0.1817 0.9834
vn 0.2545 -0.1817 0.9498
vn 0.4917 -0.1817 0.8516
vn 0.6953 -0.1817 0.6953
vn 0.8516 -0.1817 0.4917
vn 0.9498 -0.1817 0.2545
vn 0.9834 -0.1817 -0.0000
vn 0.7655 0.6099 -0.2051
vn 0.7925 0.6099 0.0000
vn 0.6863 0.6099 -0.3962
vn 0.5604 0.6099 -0.5604
vn 0.3962 0.6099 -0.6863
vn 0.2051 0.6099 -0.7655
vn 0.0000 0.6099 -0.7925
vn -0.2051 0.6099 -0.7655
vn -0.3962 0.6099 -0.6863
vn -0.5604 0.6099 -0.5604
vn -0.6863 0.6099 -0.3962
vn -0.7655 0.6099 -0.2051
vn -0.7925 0.6099 -0.0000
vn -0.7655 0.6099 0.2051
vn -0.6863 0.6099 0.3962
vn -0.5604 0.6099 0.5604
vn -0.3962 0.6099 0.6863
vn -0.2051 0.6099 0.7655
vn -0.0000 0.6099 0.7925
vn 0.2051 0.6099 0.7655
vn 0.3962 0.6099 0.6863
vn 0.5604 0.6099 0.5604
vn 0.6863 0.6099 0.3962
vn 0.7655 0.6099 0.2051
vn 0.0000 1.0000 -0.0000
# 75 vertex normals

vt 0.0784 0.6341 0.0000
vt 0.1445 0.5960 0.0000
vt 0.1521 0.6144 0.0000
vt 0.1547 0.6341 0.0000
vt 0.1165 0.5680 0.0000
vt 0.1324 0.5802 0.0000
vt 0.0784 0.5578 0.0000
vt 0.0981 0.5604 0.0000
vt 0.0402 0.5680 0.0000
vt 0.0586 0.5604 0.0000
vt 0.0122 0.5960 0.0000
vt 0.0244 0.5802 0.0000
vt 0.0020 0.6341 0.0000
vt 0.0046 0.6144 0.0000
vt 0.0122 0.6723 0.0000
vt 0.0046 0.6539 0.0000
vt 0.0402 0.7003 0.0000
vt 0.0244 0.6881 0.0000
vt 0.0784 0.7105 0.0000
vt 0.0586 0.7079 0.0000
vt 0.1165 0.7003 0.0000
vt 0.0981 0.7079 0.0000
vt 0.1445 0.6723 0.0000
vt 0.1324 0.6881 0.0000
vt 0.1521 0.6539 0.0000
vt 0.2523 0.5988 0.0000
vt 0.2555 0.6233 0.0000
vt 0.1486 0.5948 0.0000
vt 0.2479 0.5744 0.0000
vt 0.1441 0.5753 0.0000
vt 0.2424 0.5503 0.0000
vt 0.1387 0.5561 0.0000
vt 0.2357 0.5265 0.0000
vt 0.1325 0.5372 0.0000
vt 0.2279 0.5030 0.0000
vt 0.1253 0.5186 0.0000
vt 0.2190 0.4799 0.0000
vt 0.1172 0.5004 0.0000
vt 0.2090 0.4573 0.0000
vt 0.1083 0.4825 0.0000
vt 0.1979 0.4351 0.0000
vt 0.0986 0.4652 0.0000
vt 0.1859 0.4135 0.0000
vt 0.0880 0.4482 0.0000
vt 0.1728 0.3926 0.0000
vt 0.0767 0.4318 0.0000
vt 0.1587 0.3722 0.0000
vt 0.0646 0.4160 0.0000
vt 0.1437 0.3525 0.0000
vt 0.0518 0.4008 0.0000
vt 0.1277 0.3336 0.0000
vt 0.0382 0.3861 0.0000
vt 0.1109 0.3155 0.0000
vt 0.0240 0.3722 0.0000
vt 0.0932 0.2982 0.0000
vt 0.1358 0.8112 0.0000
vt 0.1416 0.7921 0.0000
vt 0.2393 0.8194 0.0000
vt 0.2321 0.8431 0.0000
vt 0.1466 0.7728 0.0000
vt 0.2454 0.7954 0.0000
vt 0.1505 0.7533 0.0000
vt 0.2503 0.7712 0.0000
vt 0.1536 0.7336 0.0000
vt 0.2541 0.7467 0.0000
vt 0.1557 0.7138 0.0000
vt 0.2567 0.7221 0.0000
vt 0.1569 0.6939 0.0000
vt 0.2582 0.6974 0.0000
vt 0.1571 0.6739 0.0000
vt 0.2585 0.6727 0.0000
vt 0.1564 0.6540 0.0000
vt 0.2576 0.6480 0.0000
vt 0.3525 0.5832 0.0000
vt 0.3563 0.6125 0.0000
vt 0.3472 0.5541 0.0000
vt 0.3406 0.5253 0.0000
vt 0.3326 0.4968 0.0000
vt 0.3233 0.4688 0.0000
vt 0.3127 0.4412 0.0000
vt 0.3008 0.4142 0.0000
vt 0.2876 0.3877 0.0000
vt 0.2731 0.3619 0.0000
vt 0.2575 0.3369 0.0000
vt 0.2407 0.3126 0.0000
vt 0.2227 0.2891 0.0000
vt 0.2037 0.2665 0.0000
vt 0.1836 0.2448 0.0000
vt 0.1625 0.2241 0.0000
vt 0.3369 0.8467 0.0000
vt 0.3283 0.8750 0.0000
vt 0.3442 0.8180 0.0000
vt 0.3501 0.7891 0.0000
vt 0.3546 0.7599 0.0000
vt 0.3578 0.7305 0.0000
vt 0.3595 0.7010 0.0000
vt 0.3598 0.6714 0.0000
vt 0.3588 0.6419 0.0000
vt 0.4526 0.5675 0.0000
vt 0.4571 0.6016 0.0000
vt 0.4465 0.5337 0.0000
vt 0.4388 0.5002 0.0000
vt 0.4296 0.4672 0.0000
vt 0.4187 0.4345 0.0000
vt 0.4064 0.4025 0.0000
vt 0.3925 0.3710 0.0000
vt 0.3772 0.3403 0.0000
vt 0.3604 0.3103 0.0000
vt 0.3422 0.2812 0.0000
vt 0.3226 0.2529 0.0000
vt 0.3018 0.2256 0.0000
vt 0.2796 0.1993 0.0000
vt 0.2563 0.1741 0.0000
vt 0.2317 0.1501 0.0000
vt 0.4346 0.8740 0.0000
vt 0.4246 0.9068 0.0000
vt 0.4430 0.8406 0.0000
vt 0.4499 0.8070 0.0000
vt 0.4552 0.7730 0.0000
vt 0.4588 0.7389 0.0000
vt 0.4608 0.7046 0.0000
vt 0.4612 0.6702 0.0000
vt 0.4600 0.6359 0.0000
vt 0.5528 0.5519 0.0000
vt 0.5579 0.5908 0.0000
vt 0.5459 0.5134 0.0000
vt 0.5371 0.4752 0.0000
vt 0.5265 0.4375 0.0000
vt 0.5142 0.4003 0.0000
vt 0.5001 0.3638 0.0000
vt 0.4843 0.3279 0.0000
vt 0.4668 0.2929 0.0000
vt 0.4476 0.2587 0.0000
vt 0.4269 0.2255 0.0000
vt 0.4046 0.1933 0.0000
vt 0.3808 0.1621 0.0000
vt 0.3556 0.1322 0.0000
vt 0.3289 0.1035 0.0000
vt 0.3010 0.0760 0.0000
vt 0.5322 0.9012 0.0000
vt 0.5208 0.9387 0.0000
vt 0.5419 0.8633 0.0000
vt 0.5497 0.8249 0.0000
vt 0.5557 0.7862 0.0000
vt 0.5598 0.7472 0.0000
vt 0.5621 0.7081 0.0000
vt 0.5626 0.6689 0.0000
vt 0.5612 0.6298 0.0000
vt 0.6530 0.5363 0.0000
vt 0.6587 0.5799 0.0000
vt 0.6452 0.4930 0.0000
vt 0.6353 0.4502 0.0000
vt 0.6235 0.4078 0.0000
vt 0.6096 0.3661 0.0000
vt 0.5938 0.3251 0.0000
vt 0.5760 0.2848 0.0000
vt 0.5564 0.2455 0.0000
vt 0.5349 0.2071 0.0000
vt 0.5116 0.1698 0.0000
vt 0.4866 0.1336 0.0000
vt 0.4599 0.0987 0.0000
vt 0.4315 0.0650 0.0000
vt 0.4016 0.0328 0.0000
vt 0.3702 0.0020 0.0000
vt 0.6299 0.9285 0.0000
vt 0.6170 0.9706 0.0000
vt 0.6407 0.8859 0.0000
vt 0.6495 0.8428 0.0000
vt 0.6562 0.7993 0.0000
vt 0.6609 0.7556 0.0000
vt 0.6635 0.7117 0.0000
vt 0.6640 0.6677 0.0000
vt 0.6624 0.6238 0.0000
vt 0.8307 0.6916 0.0000
vt 0.6758 0.6254 0.0000
vt 0.6983 0.5875 0.0000
vt 0.7297 0.5568 0.0000
vt 0.7680 0.5352 0.0000
vt 0.8107 0.5243 0.0000
vt 0.8546 0.5248 0.0000
vt 0.8970 0.5367 0.0000
vt 0.9348 0.5591 0.0000
vt 0.9655 0.5906 0.0000
vt 0.9871 0.6289 0.0000
vt 0.9980 0.6715 0.0000
vt 0.9975 0.7155 0.0000
vt 0.9856 0.7578 0.0000
vt 0.9632 0.7957 0.0000
vt 0.9318 0.8264 0.0000
vt 0.8934 0.8480 0.0000
vt 0.8508 0.8589 0.0000
vt 0.8068 0.8584 0.0000
vt 0.7645 0.8465 0.0000
vt 0.7267 0.8241 0.0000
vt 0.6959 0.7926 0.0000
vt 0.6744 0.7543 0.0000
# 196 texture coords

o Cone001
g Cone001
usemtl wire_006135113
s 1
f 1/1/1 2/2/2 3/3/3 4/4/4 
f 1/1/1 5/5/5 6/6/6 2/2/2 
f 1/1/1 7/7/7 8/8/8 5/5/5 
f 1/1/1 9/9/9 10/10/10 7/7/7 
f 1/1/1 11/11/11 12/12/12 9/9/9 
f 1/1/1 13/13/13 14/14/14 11/11/11 
f 1/1/1 15/15/15 16/16/16 13/13/13 
f 1/1/1 17/17/17 18/18/18 15/15/15 
f 1/1/1 19/19/19 20/20/20 17/17/17 
f 1/1/1 21/21/21 22/22/22 19/19/19 
f 1/1/1 23/23/23 24/24/24 21/21/21 
f 1/1/1 4/4/4 25/25/25 23/23/23 
s 8
f 4/4/4 3/3/3 26/26/26 27/27/27 
f 3/3/3 2/28/2 28/29/28 26/26/26 
f 2/28/2 6/30/6 29/31/29 28/29/28 
f 6/30/6 5/32/5 30/33/30 29/31/29 
f 5/32/5 8/34/8 31/35/31 30/33/30 
f 8/34/8 7/36/7 32/37/32 31/35/31 
f 7/36/7 10/38/10 33/39/33 32/37/32 
f 10/38/10 9/40/9 34/41/34 33/39/33 
f 9/40/9 12/42/12 35/43/35 34/41/34 
f 12/42/12 11/44/11 36/45/36 35/43/35 
f 11/44/11 14/46/14 37/47/37 36/45/36 
f 14/46/14 13/48/13 38/49/38 37/47/37 
f 13/48/13 16/50/16 39/51/39 38/49/38 
f 16/50/16 15/52/15 40/53/40 39/51/39 
f 15/52/15 18/54/18 41/55/41 40/53/40 
f 18/56/18 17/57/17 42/58/42 41/59/41 
f 17/57/17 20/60/20 43/61/43 42/58/42 
f 20/60/20 19/62/19 44/63/44 43/61/43 
f 19/62/19 22/64/22 45/65/45 44/63/44 
f 22/64/22 21/66/21 46/67/46 45/65/45 
f 21/66/21 24/68/24 47/69/47 46/67/46 
f 24/68/24 23/70/23 48/71/48 47/69/47 
f 23/70/23 25/72/25 49/73/49 48/71/48 
f 25/72/25 4/4/4 27/27/27 49/73/49 
f 27/27/27 26/26/26 50/74/26 51/75/50 
f 26/26/26 28/29/28 52/76/28 50/74/26 
f 28/29/28 29/31/29 53/77/29 52/76/28 
f 29/31/29 30/33/30 54/78/30 53/77/29 
f 30/33/30 31/35/31 55/79/31 54/78/30 
f 31/35/31 32/37/32 56/80/32 55/79/31 
f 32/37/32 33/39/33 57/81/33 56/80/32 
f 33/39/33 34/41/34 58/82/34 57/81/33 
f 34/41/34 35/43/35 59/83/35 58/82/34 
f 35/43/35 36/45/36 60/84/36 59/83/35 
f 36/45/36 37/47/37 61/85/37 60/84/36 
f 37/47/37 38/49/38 62/86/38 61/85/37 
f 38/49/38 39/51/39 63/87/39 62/86/38 
f 39/51/39 40/53/40 64/88/40 63/87/39 
f 40/53/40 41/55/41 65/89/41 64/88/40 
f 41/59/41 42/58/42 66/90/42 65/91/41 
f 42/58/42 43/61/43 67/92/43 66/90/42 
f 43/61/43 44/63/44 68/93/44 67/92/43 
f 44/63/44 45/65/45 69/94/45 68/93/44 
f 45/65/45 46/67/46 70/95/46 69/94/45 
f 46/67/46 47/69/47 71/96/47 70/95/46 
f 47/69/47 48/71/48 72/97/48 71/96/47 
f 48/71/48 49/73/49 73/98/49 72/97/48 
f 49/73/49 27/27/27 51/75/50 73/98/49 
f 51/75/50 50/74/26 74/99/26 75/100/27 
f 50/74/26 52/76/28 76/101/28 74/99/26 
f 52/76/28 53/77/29 77/102/29 76/101/28 
f 53/77/29 54/78/30 78/103/30 77/102/29 
f 54/78/30 55/79/31 79/104/31 78/103/30 
f 55/79/31 56/80/32 80/105/32 79/104/31 
f 56/80/32 57/81/33 81/106/33 80/105/32 
f 57/81/33 58/82/34 82/107/34 81/106/33 
f 58/82/34 59/83/35 83/108/35 82/107/34 
f 59/83/35 60/84/36 84/109/36 83/108/35 
f 60/84/36 61/85/37 85/110/37 84/109/36 
f 61/85/37 62/86/38 86/111/38 85/110/37 
f 62/86/38 63/87/39 87/112/39 86/111/38 
f 63/87/39 64/88/40 88/113/40 87/112/39 
f 64/88/40 65/89/41 89/114/41 88/113/40 
f 65/91/41 66/90/42 90/115/42 89/116/41 
f 66/90/42 67/92/43 91/117/43 90/115/42 
f 67/92/43 68/93/44 92/118/44 91/117/43 
f 68/93/44 69/94/45 93/119/45 92/118/44 
f 69/94/45 70/95/46 94/120/46 93/119/45 
f 70/95/46 71/96/47 95/121/47 94/120/46 
f 71/96/47 72/97/48 96/122/48 95/121/47 
f 72/97/48 73/98/49 97/123/49 96/122/48 
f 73/98/49 51/75/50 75/100/27 97/123/49 
f 75/100/27 74/99/26 98/124/26 99/125/27 
f 74/99/26 76/101/28 100/126/28 98/124/26 
f 76/101/28 77/102/29 101/127/29 100/126/28 
f 77/102/29 78/103/30 102/128/30 101/127/29 
f 78/103/30 79/104/31 103/129/31 102/128/30 
f 79/104/31 80/105/32 104/130/32 103/129/31 
f 80/105/32 81/106/33 105/131/33 104/130/32 
f 81/106/33 82/107/34 106/132/34 105/131/33 
f 82/107/34 83/108/35 107/133/35 106/132/34 
f 83/108/35 84/109/36 108/134/36 107/133/35 
f 84/109/36 85/110/37 109/135/37 108/134/36 
f 85/110/37 86/111/38 110/136/38 109/135/37 
f 86/111/38 87/112/39 111/137/39 110/136/38 
f 87/112/39 88/113/40 112/138/40 111/137/39 
f 88/113/40 89/114/41 113/139/41 112/138/40 
f 89/116/41 90/115/42 114/140/42 113/141/41 
f 90/115/42 91/117/43 115/142/43 114/140/42 
f 91/117/43 92/118/44 116/143/44 115/142/43 
f 92/118/44 93/119/45 117/144/45 116/143/44 
f 93/119/45 94/120/46 118/145/46 117/144/45 
f 94/120/46 95/121/47 119/146/47 118/145/46 
f 95/121/47 96/122/48 120/147/48 119/146/47 
f 96/122/48 97/123/49 121/148/49 120/147/48 
f 97/123/49 75/100/27 99/125/27 121/148/49 
f 99/125/27 98/124/26 122/149/51 123/150/52 
f 98/124/26 100/126/28 124/151/53 122/149/51 
f 100/126/28 101/127/29 125/152/54 124/151/53 
f 101/127/29 102/128/30 126/153/55 125/152/54 
f 102/128/30 103/129/31 127/154/56 126/153/55 
f 103/129/31 104/130/32 128/155/57 127/154/56 
f 104/130/32 105/131/33 129/156/58 128/155/57 
f 105/131/33 106/132/34 130/157/59 129/156/58 
f 106/132/34 107/133/35 131/158/60 130/157/59 
f 107/133/35 108/134/36 132/159/61 131/158/60 
f 108/134/36 109/135/37 133/160/62 132/159/61 
f 109/135/37 110/136/38 134/161/63 133/160/62 
f 110/136/38 111/137/39 135/162/64 134/161/63 
f 111/137/39 112/138/40 136/163/65 135/162/64 
f 112/138/40 113/139/41 137/164/66 136/163/65 
f 113/141/41 114/140/42 138/165/67 137/166/66 
f 114/140/42 115/142/43 139/167/68 138/165/67 
f 115/142/43 116/143/44 140/168/69 139/167/68 
f 116/143/44 117/144/45 141/169/70 140/168/69 
f 117/144/45 118/145/46 142/170/71 141/169/70 
f 118/145/46 119/146/47 143/171/72 142/170/71 
f 119/146/47 120/147/48 144/172/73 143/171/72 
f 120/147/48 121/148/49 145/173/74 144/172/73 
f 121/148/49 99/125/27 123/150/52 145/173/74 
s 1
f 146/174/75 145/175/74 123/176/52 122/177/51 
f 146/174/75 122/177/51 124/178/53 125/179/54 
f 146/174/75 125/179/54 126/180/55 127/181/56 
f 146/174/75 127/181/56 128/182/57 129/183/58 
f 146/174/75 129/183/58 130/184/59 131/185/60 
f 146/174/75 131/185/60 132/186/61 133/187/62 
f 146/174/75 133/187/62 134/188/63 135/189/64 
f 146/174/75 135/189/64 136/190/65 137/191/66 
f 146/174/75 137/191/66 138/192/67 139/193/68 
f 146/174/75 139/193/68 140/194/69 141/195/70 
f 146/174/75 141/195/70 142/196/71 143/171/72 
f 146/174/75 143/171/72 144/172/73 145/175/74 
# 144 polygons

